<svg data-v-423bf9ae="" xmlns="http://www.w3.org/2000/svg" viewBox="0 0 594 90" class="iconLeftSlogan"><!----><!----><!----><g data-v-423bf9ae="" id="8a1365fe-6b76-4d10-b5fa-746eb3950d8b" fill="#13182E" transform="matrix(6.0667338371276855,0,0,6.0667338371276855,153.67276000976562,0.3640038073062897)"><path d="M5.92 9.83L5.92 9.83L0.42 9.83L0.42 9.42L1.72 9.42L1.72 0.36L0.42 0.36L0.42-0.04L5.92-0.04L5.92-0.04Q6.59-0.04 7.03 0.41L7.03 0.41L7.03 0.41Q7.46 0.87 7.46 1.68L7.46 1.68L7.07 1.68L7.07 1.68Q7 1.05 6.72 0.71L6.72 0.71L6.72 0.71Q6.44 0.36 5.95 0.36L5.95 0.36L3.46 0.36L3.46 4.69L6.09 4.69L6.09 5.10L3.46 5.10L3.46 9.42L5.92 9.42L5.92 9.42Q6.41 9.42 6.69 9.14L6.69 9.14L6.69 9.14Q6.30 9.20 6.01 8.93L6.01 8.93L6.01 8.93Q5.71 8.67 5.71 8.27L5.71 8.27L5.71 8.27Q5.71 7.91 5.97 7.65L5.97 7.65L5.97 7.65Q6.23 7.39 6.59 7.39L6.59 7.39L6.59 7.39Q6.96 7.39 7.21 7.65L7.21 7.65L7.21 7.65Q7.46 7.91 7.46 8.27L7.46 8.27L7.46 8.27Q7.46 8.95 7.03 9.39L7.03 9.39L7.03 9.39Q6.59 9.83 5.92 9.83ZM13.90 7.03L8.30 7.03L8.30 6.66L13.90 6.66L13.90 7.03ZM24.54 0.36L23.23 0.36L23.23 9.41L24.54 9.41L24.54 9.83L20.15 9.83L20.15 9.41L21.46 9.41L21.46 5.10L17.82 5.10L17.82 9.41L19.14 9.41L19.14 9.83L14.74 9.83L14.74 9.41L16.06 9.41L16.06 0.36L14.74 0.36L14.74-0.06L19.14-0.06L19.14 0.36L17.82 0.36L17.82 4.68L21.46 4.68L21.46 0.36L20.15 0.36L20.15-0.06L24.54-0.06L24.54 0.36ZM29.62 9.83L29.62 9.83L29.62 9.83Q28.63 9.83 27.85 9.39L27.85 9.39L27.85 9.39Q27.06 8.96 26.52 8.25L26.52 8.25L26.52 8.25Q25.97 7.55 25.68 6.66L25.68 6.66L25.68 6.66Q25.38 5.78 25.38 4.89L25.38 4.89L25.38 4.89Q25.38 4.00 25.68 3.11L25.68 3.11L25.68 3.11Q25.97 2.23 26.52 1.53L26.52 1.53L26.52 1.53Q27.06 0.83 27.85 0.38L27.85 0.38L27.85 0.38Q28.63-0.06 29.62-0.06L29.62-0.06L29.62-0.06Q30.60-0.06 31.40 0.38L31.40 0.38L31.40 0.38Q32.19 0.83 32.73 1.53L32.73 1.53L32.73 1.53Q33.28 2.23 33.57 3.11L33.57 3.11L33.57 3.11Q33.87 4.00 33.87 4.89L33.87 4.89L33.87 4.89Q33.87 5.78 33.57 6.66L33.57 6.66L33.57 6.66Q33.28 7.55 32.73 8.25L32.73 8.25L32.73 8.25Q32.19 8.96 31.40 9.39L31.40 9.39L31.40 9.39Q30.60 9.83 29.62 9.83ZM32.10 6.92L32.10 2.86L32.10 2.86Q32.10 2.34 31.91 1.88L31.91 1.88L31.91 1.88Q31.71 1.43 31.37 1.09L31.37 1.09L31.37 1.09Q31.04 0.76 30.59 0.56L30.59 0.56L30.59 0.56Q30.14 0.36 29.62 0.36L29.62 0.36L29.62 0.36Q29.11 0.36 28.65 0.56L28.65 0.56L28.65 0.56Q28.20 0.76 27.86 1.09L27.86 1.09L27.86 1.09Q27.52 1.43 27.33 1.88L27.33 1.88L27.33 1.88Q27.13 2.34 27.13 2.86L27.13 2.86L27.13 6.92L27.13 6.92Q27.13 7.43 27.33 7.89L27.33 7.89L27.33 7.89Q27.52 8.34 27.86 8.68L27.86 8.68L27.86 8.68Q28.20 9.02 28.65 9.21L28.65 9.21L28.65 9.21Q29.11 9.41 29.62 9.41L29.62 9.41L29.62 9.41Q30.14 9.41 30.59 9.21L30.59 9.21L30.59 9.21Q31.04 9.02 31.37 8.68L31.37 8.68L31.37 8.68Q31.71 8.34 31.91 7.89L31.91 7.89L31.91 7.89Q32.10 7.43 32.10 6.92L32.10 6.92ZM38.95 9.83L38.95 9.83L38.95 9.83Q37.95 9.83 37.17 9.39L37.17 9.39L37.17 9.39Q36.39 8.96 35.84 8.25L35.84 8.25L35.84 8.25Q35.29 7.55 35 6.66L35 6.66L35 6.66Q34.71 5.78 34.71 4.89L34.71 4.89L34.71 4.89Q34.71 4.00 35 3.11L35 3.11L35 3.11Q35.29 2.23 35.84 1.53L35.84 1.53L35.84 1.53Q36.39 0.83 37.17 0.38L37.17 0.38L37.17 0.38Q37.95-0.06 38.95-0.06L38.95-0.06L38.95-0.06Q39.93-0.06 40.72 0.38L40.72 0.38L40.72 0.38Q41.51 0.83 42.06 1.53L42.06 1.53L42.06 1.53Q42.60 2.23 42.90 3.11L42.90 3.11L42.90 3.11Q43.19 4.00 43.19 4.89L43.19 4.89L43.19 4.89Q43.19 5.78 42.90 6.66L42.90 6.66L42.90 6.66Q42.60 7.55 42.06 8.25L42.06 8.25L42.06 8.25Q41.51 8.96 40.72 9.39L40.72 9.39L40.72 9.39Q39.93 9.83 38.95 9.83ZM41.43 6.92L41.43 2.86L41.43 2.86Q41.43 2.34 41.23 1.88L41.23 1.88L41.23 1.88Q41.03 1.43 40.70 1.09L40.70 1.09L40.70 1.09Q40.36 0.76 39.91 0.56L39.91 0.56L39.91 0.56Q39.47 0.36 38.95 0.36L38.95 0.36L38.95 0.36Q38.43 0.36 37.98 0.56L37.98 0.56L37.98 0.56Q37.52 0.76 37.18 1.09L37.18 1.09L37.18 1.09Q36.85 1.43 36.65 1.88L36.65 1.88L36.65 1.88Q36.46 2.34 36.46 2.86L36.46 2.86L36.46 6.92L36.46 6.92Q36.46 7.43 36.65 7.89L36.65 7.89L36.65 7.89Q36.85 8.34 37.18 8.68L37.18 8.68L37.18 8.68Q37.52 9.02 37.98 9.21L37.98 9.21L37.98 9.21Q38.43 9.41 38.95 9.41L38.95 9.41L38.95 9.41Q39.47 9.41 39.91 9.21L39.91 9.21L39.91 9.21Q40.36 9.02 40.70 8.68L40.70 8.68L40.70 8.68Q41.03 8.34 41.23 7.89L41.23 7.89L41.23 7.89Q41.43 7.43 41.43 6.92L41.43 6.92ZM56.63 0.36L55.30 0.36L55.30 9.41L56.63 9.41L56.63 9.83L52.21 9.83L52.21 9.41L53.52 9.41L53.52 1.04L53.52 1.04Q52.47 3.12 51.42 5.20L51.42 5.20L51.42 5.20Q50.37 7.28 49.32 9.38L49.32 9.38L45.77 1.16L45.77 9.41L47.10 9.41L47.10 9.83L44.03 9.83L44.03 9.41L45.36 9.41L45.36 0.36L44.03 0.36L44.03-0.06L47.07-0.06L50.08 6.94L53.61-0.06L56.63-0.06L56.63 0.36ZM62.97 9.83L62.97 9.83L57.47 9.83L57.47 9.42L58.77 9.42L58.77 0.36L57.47 0.36L57.47-0.04L62.97-0.04L62.97-0.04Q63.64-0.04 64.08 0.41L64.08 0.41L64.08 0.41Q64.51 0.87 64.51 1.68L64.51 1.68L64.12 1.68L64.12 1.68Q64.05 1.05 63.77 0.71L63.77 0.71L63.77 0.71Q63.49 0.36 63 0.36L63 0.36L60.51 0.36L60.51 4.69L63.14 4.69L63.14 5.10L60.51 5.10L60.51 9.42L62.97 9.42L62.97 9.42Q63.46 9.42 63.74 9.14L63.74 9.14L63.74 9.14Q63.35 9.20 63.06 8.93L63.06 8.93L63.06 8.93Q62.76 8.67 62.76 8.27L62.76 8.27L62.76 8.27Q62.76 7.91 63.02 7.65L63.02 7.65L63.02 7.65Q63.28 7.39 63.64 7.39L63.64 7.39L63.64 7.39Q64.01 7.39 64.26 7.65L64.26 7.65L64.26 7.65Q64.51 7.91 64.51 8.27L64.51 8.27L64.51 8.27Q64.51 8.95 64.08 9.39L64.08 9.39L64.08 9.39Q63.64 9.83 62.97 9.83ZM68.89 9.83L68.89 9.83L68.89 9.83Q68.08 9.83 67.42 9.56L67.42 9.56L67.42 9.56Q66.77 9.30 66.30 8.82L66.30 8.82L66.30 8.82Q65.84 8.34 65.60 7.69L65.60 7.69L65.60 7.69Q65.35 7.03 65.35 6.24L65.35 6.24L65.35 6.24Q65.35 5.88 65.60 5.62L65.60 5.62L65.60 5.62Q65.86 5.36 66.22 5.36L66.22 5.36L66.22 5.36Q66.58 5.36 66.84 5.62L66.84 5.62L66.84 5.62Q67.09 5.88 67.09 6.24L67.09 6.24L67.09 6.24Q67.09 6.48 66.98 6.67L66.98 6.67L66.98 6.67Q66.86 6.86 66.69 6.98L66.69 6.98L66.69 6.98Q66.51 7.10 66.30 7.12L66.30 7.12L66.30 7.12Q66.08 7.14 65.87 7.04L65.87 7.04L65.87 7.04Q66.14 8.16 66.90 8.79L66.90 8.79L66.90 8.79Q67.66 9.41 68.89 9.41L68.89 9.41L68.89 9.41Q69.27 9.41 69.59 9.27L69.59 9.27L69.59 9.27Q69.92 9.13 70.16 8.88L70.16 8.88L70.16 8.88Q70.41 8.62 70.55 8.29L70.55 8.29L70.55 8.29Q70.69 7.97 70.69 7.59L70.69 7.59L70.69 4.89L70.69 4.89Q70.69 4.05 70.20 3.56L70.20 3.56L70.20 3.56Q69.71 3.08 68.89 3.07L68.89 3.07L68.89 3.07Q68.22 3.05 67.79 2.63L67.79 2.63L67.79 2.63Q67.35 2.21 67.35 1.51L67.35 1.51L67.35 1.51Q67.35 0.80 67.78 0.37L67.78 0.37L67.78 0.37Q68.21-0.06 68.89-0.06L68.89-0.06L68.89-0.06Q69.59-0.06 70.01 0.36L70.01 0.36L70.01 0.36Q70.43 0.78 70.43 1.51L70.43 1.51L70.43 1.51Q70.43 1.88 70.17 2.13L70.17 2.13L70.17 2.13Q69.92 2.39 69.55 2.39L69.55 2.39L69.55 2.39Q69.19 2.39 68.94 2.13L68.94 2.13L68.94 2.13Q68.68 1.88 68.68 1.51L68.68 1.51L68.68 1.51Q68.68 1.12 68.97 0.85L68.97 0.85L68.97 0.85Q69.26 0.59 69.65 0.63L69.65 0.63L69.65 0.63Q69.31 0.36 68.89 0.36L68.89 0.36L68.89 0.36Q68.39 0.36 68.08 0.68L68.08 0.68L68.08 0.68Q67.76 0.99 67.76 1.51L67.76 1.51L67.76 1.51Q67.76 2.02 68.08 2.34L68.08 2.34L68.08 2.34Q68.39 2.66 68.89 2.66L68.89 2.66L68.89 2.66Q69.62 2.66 70.27 2.94L70.27 2.94L70.27 2.94Q70.91 3.22 71.39 3.70L71.39 3.70L71.39 3.70Q71.88 4.19 72.16 4.84L72.16 4.84L72.16 4.84Q72.44 5.50 72.44 6.24L72.44 6.24L72.44 6.24Q72.44 6.99 72.16 7.64L72.16 7.64L72.16 7.64Q71.88 8.29 71.39 8.78L71.39 8.78L71.39 8.78Q70.91 9.27 70.27 9.55L70.27 9.55L70.27 9.55Q69.62 9.83 68.89 9.83Z"></path></g><defs data-v-423bf9ae=""><linearGradient data-v-423bf9ae="" gradientTransform="rotate(25)" id="340f3354-af0c-4861-b6c1-e9c4a29394e6" x1="0%" y1="0%" x2="100%" y2="0%"><stop data-v-423bf9ae="" offset="0%" style="stop-color: rgb(13, 37, 69); stop-opacity: 1;"></stop><stop data-v-423bf9ae="" offset="100%" style="stop-color: rgb(162, 31, 68); stop-opacity: 1;"></stop></linearGradient></defs><g data-v-423bf9ae="" id="4784f793-978f-4ea4-88fe-0d47a889bac7" transform="matrix(1.437929391860962,0,0,1.437929391860962,-11.696603775024414,-9.014704704284668)" stroke="none" fill="url(#340f3354-af0c-4861-b6c1-e9c4a29394e6)"><path d="M102.923 54.276l-6.311 6.407-41.002-41.05-41.026 41.05-6.395-6.407L55.584 6.887l.071.068.249-.071L75.281 26.08V12.474h8v22.35z"></path><path d="M47.281 40.474h17v29h-17z"></path></g><!----><g data-v-423bf9ae="" id="484a975d-ba9a-4a3c-9d0f-10705a8c385d" fill="#13182E" transform="matrix(2.405153512954712,0,0,2.405153512954712,155.54734802246094,54.10737228393555)"><path d="M3.96 11.69L0.73 2.80L0.28 2.80L3.99 12.95L6.93 3.79L9.87 12.95L13.58 2.80L13.13 2.80L9.90 11.69L6.93 2.45ZM22.54 7.48L26.88 7.48L26.88 7.08L22.54 7.08L22.54 3.21L27.16 3.21L27.16 2.80L22.12 2.80L22.12 12.60L27.16 12.60L27.16 12.19L22.54 12.19ZM56.42 7.63L52.36 7.63L52.36 8.11L55.94 8.11C55.86 9.32 55.46 10.32 54.75 11.09C54.04 11.87 53.11 12.26 51.94 12.26C50.65 12.26 49.61 11.82 48.82 10.94C48.02 10.06 47.63 8.98 47.63 7.70C47.63 6.40 48.03 5.32 48.84 4.45C49.65 3.57 50.68 3.14 51.94 3.14C52.69 3.14 53.38 3.31 54.02 3.65C54.66 4.00 55.17 4.47 55.55 5.05L55.94 4.75C55.51 4.11 54.95 3.61 54.26 3.24C53.58 2.87 52.81 2.69 51.94 2.69C50.59 2.69 49.46 3.17 48.55 4.13C47.64 5.09 47.18 6.28 47.18 7.70C47.18 9.12 47.64 10.31 48.55 11.27C49.46 12.23 50.59 12.71 51.94 12.71C53.31 12.71 54.40 12.22 55.21 11.23C56.02 10.25 56.42 9.05 56.42 7.63ZM65.31 7.70C65.31 6.38 65.72 5.29 66.53 4.41C67.34 3.53 68.37 3.09 69.61 3.09C70.85 3.09 71.88 3.53 72.69 4.41C73.50 5.29 73.91 6.38 73.91 7.70C73.91 9.02 73.50 10.11 72.69 10.99C71.88 11.87 70.85 12.31 69.61 12.31C68.37 12.31 67.34 11.87 66.53 10.99C65.72 10.11 65.31 9.02 65.31 7.70ZM64.89 7.70C64.89 9.16 65.34 10.36 66.23 11.30C67.12 12.24 68.25 12.71 69.61 12.71C70.97 12.71 72.10 12.24 72.99 11.30C73.88 10.36 74.33 9.16 74.33 7.70C74.33 6.24 73.88 5.04 72.99 4.10C72.10 3.16 70.97 2.69 69.61 2.69C68.25 2.69 67.12 3.16 66.23 4.10C65.34 5.04 64.89 6.24 64.89 7.70ZM82.03 3.21L84.55 3.21L84.55 12.60L84.97 12.60L84.97 3.21L87.49 3.21L87.49 2.80L82.03 2.80ZM112.60 2.80L109.59 8.16L106.71 2.80L106.18 2.80L109.37 8.62L109.37 12.60L109.82 12.60L109.82 8.61L113.13 2.80ZM121.46 7.70C121.46 6.38 121.87 5.29 122.68 4.41C123.49 3.53 124.52 3.09 125.76 3.09C127.00 3.09 128.03 3.53 128.84 4.41C129.65 5.29 130.06 6.38 130.06 7.70C130.06 9.02 129.65 10.11 128.84 10.99C128.03 11.87 127.00 12.31 125.76 12.31C124.52 12.31 123.49 11.87 122.68 10.99C121.87 10.11 121.46 9.02 121.46 7.70ZM121.04 7.70C121.04 9.16 121.49 10.36 122.38 11.30C123.27 12.24 124.40 12.71 125.76 12.71C127.12 12.71 128.25 12.24 129.14 11.30C130.03 10.36 130.48 9.16 130.48 7.70C130.48 6.24 130.03 5.04 129.14 4.10C128.25 3.16 127.12 2.69 125.76 2.69C124.40 2.69 123.27 3.16 122.38 4.10C121.49 5.04 121.04 6.24 121.04 7.70ZM139.37 2.80L139.37 9.24C139.37 10.29 139.65 11.13 140.22 11.77C140.79 12.42 141.55 12.74 142.49 12.74C143.43 12.74 144.19 12.42 144.76 11.77C145.33 11.13 145.61 10.29 145.61 9.24L145.61 2.80L145.19 2.80L145.19 9.24C145.19 10.17 144.94 10.92 144.43 11.47C143.92 12.02 143.28 12.29 142.49 12.29C141.71 12.29 141.06 12.02 140.55 11.47C140.04 10.92 139.79 10.17 139.79 9.24L139.79 2.80Z"></path></g></svg>